<svg width="445" height="725" viewBox="0 0 445 725" fill="none" xmlns="http://www.w3.org/2000/svg">
<path d="M44.6956 36.0049L-3.97876 88.0831L100.518 142.544L44.6956 36.0049Z" stroke="#475467" stroke-width="0.5"/>
<circle cx="44.6955" cy="36.0049" r="0.521141" fill="#4E31B6" stroke="#475467"/>
<circle cx="100.518" cy="142.544" r="0.521141" fill="#4E31B6" stroke="#475467"/>
<path d="M80.3616 629.589L50.0527 662.017L115.122 695.929L80.3616 629.589Z" stroke="#475467" stroke-width="0.5"/>
<circle cx="80.3617" cy="629.589" r="0.5" fill="#475467" stroke="#475467" stroke-width="0.271703"/>
<circle cx="50.0528" cy="662.017" r="0.5" fill="#475467" stroke="#475467" stroke-width="0.271703"/>
<circle cx="115.122" cy="695.929" r="0.5" fill="#4E31B6" stroke="#475467" stroke-width="0.271703"/>
<path d="M383.102 351L325 413.165L449.736 478.174L383.102 351Z" stroke="#475467" stroke-width="0.5"/>
<circle cx="382.321" cy="351.172" r="0.718923" fill="#4E31B6" stroke="#475467"/>
<circle cx="324.219" cy="413.337" r="0.718923" fill="#4E31B6" stroke="#475467"/>
<path d="M20.578 230.193L14.8597 257.734L148.894 267.482L20.578 230.193Z" stroke="#475467" stroke-width="0.5"/>
<circle cx="148.684" cy="267.135" r="0.634721" fill="#4E31B6" stroke="#475467"/>
<circle cx="20.4599" cy="229.689" r="0.634721" fill="#4E31B6" stroke="#475467"/>
<circle cx="14.7863" cy="257.49" r="0.634721" fill="#4E31B6" stroke="#475467"/>
<circle cx="68.6835" cy="187.135" r="0.634721" fill="#4E31B6" stroke="#475467"/>
<circle cx="236.684" cy="227.135" r="0.634721" fill="#4E31B6" stroke="#475467"/>
<circle cx="116.684" cy="3.13484" r="0.634721" fill="#4E31B6" stroke="#475467"/>
<path d="M367.342 140.437L347.128 2.12781L433.305 100.008L367.342 140.437Z" stroke="#475467" stroke-width="0.5"/>
<circle cx="347.128" cy="2.12784" r="1.62784" fill="#475467" stroke="#475467"/>
<circle cx="433.305" cy="98.9444" r="1.62784" fill="#4E31B6" stroke="#475467"/>
<circle cx="368.406" cy="140.437" r="1.62784" fill="#475467" stroke="#475467"/>
<circle cx="131.128" cy="106.128" r="1.62784" fill="#475467" stroke="#475467"/>
<circle cx="235.128" cy="42.1278" r="1.62784" fill="#475467" stroke="#475467"/>
<circle cx="347.128" cy="202.128" r="1.62784" fill="#475467" stroke="#475467"/>
<circle cx="379.128" cy="330.128" r="1.62784" fill="#475467" stroke="#475467"/>
<circle cx="107.128" cy="298.128" r="1.62784" fill="#475467" stroke="#475467"/>
<circle cx="68.6835" cy="579.135" r="0.634721" fill="#475467" stroke="#475467"/>
<circle cx="236.684" cy="619.135" r="0.634721" fill="#475467" stroke="#475467"/>
<circle cx="236.684" cy="499.135" r="0.634721" fill="#475467" stroke="#475467"/>
<circle cx="388.684" cy="515.135" r="0.634721" fill="#475467" stroke="#475467"/>
<circle cx="179.128" cy="506.128" r="1.62784" fill="#475467" stroke="#475467"/>
<circle cx="235.128" cy="434.128" r="1.62784" fill="#475467" stroke="#475467"/>
<circle cx="99.1278" cy="434.128" r="1.62784" fill="#475467" stroke="#475467"/>
<circle cx="347.128" cy="594.128" r="1.62784" fill="#475467" stroke="#475467"/>
<circle cx="379.128" cy="722.128" r="1.62784" fill="#475467" stroke="#475467"/>
<circle cx="123.128" cy="634.128" r="1.62784" fill="#475467" stroke="#475467"/>
<path d="M223.049 109.115L280.141 151.647L213.853 147.432L223.049 109.115Z" stroke="#475467" stroke-width="0.5"/>
<circle cx="280.141" cy="151.647" r="0.583764" transform="rotate(135 280.141 151.647)" fill="#4E31B6" stroke="#475467"/>
<circle cx="214.236" cy="147.815" r="0.583764" transform="rotate(135 214.236 147.815)" fill="#4E31B6" stroke="#475467"/>
<circle cx="222.666" cy="109.498" r="0.583764" transform="rotate(135 222.666 109.498)" fill="#4E31B6" stroke="#475467"/>
<path d="M341.648 700.884L325.681 591.634L393.752 668.949L341.648 700.884Z" stroke="#475467" stroke-width="0.5"/>
<circle cx="325.681" cy="591.634" r="1.18078" fill="#475467" stroke="#475467"/>
<circle cx="393.752" cy="668.109" r="1.18078" fill="#475467" stroke="#475467"/>
<circle cx="342.489" cy="700.884" r="1.18078" fill="#475467" stroke="#475467"/>
<path d="M17.0914 492.191L126.342 476.223L49.0262 544.295L17.0914 492.191Z" stroke="#475467" stroke-width="0.5"/>
<circle cx="126.342" cy="476.223" r="1.18078" transform="rotate(90 126.342 476.223)" fill="#475467" stroke="#475467"/>
<circle cx="49.8666" cy="544.295" r="1.18078" transform="rotate(90 49.8666 544.295)" fill="#475467" stroke="#475467"/>
<circle cx="17.0912" cy="493.031" r="1.18078" transform="rotate(90 17.0912 493.031)" fill="#4E31B6" stroke="#475467"/>
</svg>
