<svg width="445" height="794" viewBox="0 0 445 794" fill="none" xmlns="http://www.w3.org/2000/svg">
<path d="M28.5 90.5L8.02112 139.083L43.5 184L119 250.5L172.5 190.417L119 165L62 70L28.5 90.5Z" stroke="#CDD5E9" stroke-width="0.5"/>
<circle cx="56.6955" cy="87.0049" r="0.521141" fill="#CDD5E9" stroke="#CDD5E9"/>
<circle cx="8.02114" cy="139.083" r="0.521141" fill="#CDD5E9" stroke="#CDD5E9"/>
<circle cx="112.518" cy="193.544" r="0.521141" fill="#CDD5E9" stroke="#CDD5E9"/>
<path d="M63.08 754.121L83.8859 793.33L137.119 742.831L63.08 754.121Z" stroke="#CDD5E9" stroke-width="0.5"/>
<circle cx="63.0801" cy="754.121" r="0.5" transform="rotate(-71.0173 63.0801 754.121)" fill="#CDD5E9" stroke="#CDD5E9" stroke-width="0.271703"/>
<circle cx="83.886" cy="793.33" r="0.5" transform="rotate(-71.0173 83.886 793.33)" fill="#CDD5E9" stroke="#CDD5E9" stroke-width="0.271703"/>
<circle cx="137.12" cy="742.831" r="0.5" transform="rotate(-71.0173 137.12 742.831)" fill="#CDD5E9" stroke="#CDD5E9" stroke-width="0.271703"/>
<path d="M434.5 399L408.5 534.5L386 558.5L353.5 546.5L329.5 505.5L312 424.5L302 373V318L293.5 295.5" stroke="#CDD5E9" stroke-width="0.5"/>
<circle cx="439.219" cy="412.219" r="0.718923" fill="#CDD5E9" stroke="#CDD5E9"/>
<path d="M353.938 545.781C353.938 546.178 353.616 546.5 353.219 546.5C352.822 546.5 352.5 546.178 352.5 545.781C352.5 545.384 352.822 545.062 353.219 545.062C353.616 545.062 353.938 545.384 353.938 545.781Z" fill="#CDD5E9" stroke="#CDD5E9"/>
<circle cx="235.219" cy="326.219" r="0.718923" fill="#CDD5E9" stroke="#CDD5E9"/>
<path d="M32.1228 700.988L25.7238 648.114L102.654 594.745L128.087 609.294M128.087 609.294L122.305 636.425M128.087 609.294L155.893 660.103L173.523 710.065" stroke="#CDD5E9" stroke-width="0.5"/>
<circle cx="156.069" cy="660.438" r="0.634721" transform="rotate(-6.9005 156.069 660.438)" fill="#CDD5E9" stroke="#CDD5E9"/>
<circle cx="25.546" cy="647.628" r="0.634721" transform="rotate(-6.9005 25.546 647.628)" fill="#CDD5E9" stroke="#CDD5E9"/>
<circle cx="31.9996" cy="700.635" r="0.634721" transform="rotate(-6.9005 31.9996 700.635)" fill="#CDD5E9" stroke="#CDD5E9"/>
<circle cx="80.6835" cy="238.135" r="0.634721" fill="#CDD5E9" stroke="#CDD5E9"/>
<circle cx="248.684" cy="278.135" r="0.634721" fill="#CDD5E9" stroke="#CDD5E9"/>
<path d="M329.769 505.865C329.769 506.216 329.485 506.5 329.135 506.5C328.784 506.5 328.5 506.216 328.5 505.865C328.5 505.515 328.784 505.231 329.135 505.231C329.485 505.231 329.769 505.515 329.769 505.865Z" fill="#CDD5E9" stroke="#CDD5E9"/>
<circle cx="303.135" cy="383.135" r="0.634721" fill="#CDD5E9" stroke="#CDD5E9"/>
<circle cx="296.135" cy="389.135" r="0.634721" fill="#CDD5E9" stroke="#CDD5E9"/>
<circle cx="128.684" cy="54.1348" r="0.634721" fill="#CDD5E9" stroke="#CDD5E9"/>
<path d="M381 2L369 85M445.305 151.008L369 85M369 85L330.5 121.5" stroke="#CDD5E9" stroke-width="0.5"/>
<circle cx="369.128" cy="84.1278" r="1.62784" fill="#CDD5E9" stroke="#CDD5E9"/>
<circle cx="445.305" cy="149.944" r="1.62784" fill="#CDD5E9" stroke="#CDD5E9"/>
<circle cx="331.128" cy="121.128" r="1.62784" fill="#CDD5E9" stroke="#CDD5E9"/>
<path d="M173.756 191.128C173.756 192.027 173.027 192.756 172.128 192.756C171.229 192.756 170.5 192.027 170.5 191.128C170.5 190.229 171.229 189.5 172.128 189.5C173.027 189.5 173.756 190.229 173.756 191.128Z" fill="#CDD5E9" stroke="#CDD5E9"/>
<path d="M62.6278 70.6278C62.6278 71.5269 61.899 72.2557 60.9999 72.2557C60.1009 72.2557 59.3721 71.5269 59.3721 70.6278C59.3721 69.7288 60.1009 69 60.9999 69C61.899 69 62.6278 69.7288 62.6278 70.6278ZM29.7557 90.5C29.7557 91.399 29.0269 92.1278 28.1278 92.1278C27.2288 92.1278 26.5 91.399 26.5 90.5C26.5 89.601 27.2288 88.8722 28.1278 88.8722C29.0269 88.8722 29.7557 89.601 29.7557 90.5Z" fill="#CDD5E9" stroke="#CDD5E9"/>
<circle cx="148.128" cy="218.128" r="1.62784" fill="#CDD5E9" stroke="#CDD5E9"/>
<circle cx="119.128" cy="249.128" r="1.62784" fill="#CDD5E9" stroke="#CDD5E9"/>
<circle cx="43.1278" cy="184.128" r="1.62784" fill="#CDD5E9" stroke="#CDD5E9"/>
<circle cx="373.128" cy="275.128" r="1.62784" fill="#CDD5E9" stroke="#CDD5E9"/>
<circle cx="303.128" cy="319.128" r="1.62784" fill="#CDD5E9" stroke="#CDD5E9"/>
<circle cx="293.128" cy="296.128" r="1.62784" fill="#CDD5E9" stroke="#CDD5E9"/>
<circle cx="434.128" cy="401.128" r="1.62784" fill="#CDD5E9" stroke="#CDD5E9"/>
<circle cx="119.128" cy="164.128" r="1.62784" fill="#CDD5E9" stroke="#CDD5E9"/>
<circle cx="123.135" cy="636.135" r="0.634721" fill="#CDD5E9" stroke="#CDD5E9"/>
<circle cx="261.135" cy="755.135" r="0.634721" fill="#CDD5E9" stroke="#CDD5E9"/>
<circle cx="248.684" cy="550.135" r="0.634721" fill="#CDD5E9" stroke="#CDD5E9"/>
<circle cx="129.135" cy="609.135" r="0.634721" fill="#CDD5E9" stroke="#CDD5E9"/>
<circle cx="149.135" cy="509.135" r="0.634721" fill="#CDD5E9" stroke="#CDD5E9"/>
<circle cx="386.135" cy="558.135" r="0.634721" fill="#CDD5E9" stroke="#CDD5E9"/>
<circle cx="250.128" cy="570.128" r="1.62784" fill="#CDD5E9" stroke="#CDD5E9"/>
<circle cx="263.128" cy="469.128" r="1.62784" fill="#CDD5E9" stroke="#CDD5E9"/>
<circle cx="409.128" cy="535.128" r="1.62784" fill="#CDD5E9" stroke="#CDD5E9"/>
<circle cx="168.128" cy="348.128" r="1.62784" fill="#CDD5E9" stroke="#CDD5E9"/>
<circle cx="223.128" cy="444.128" r="1.62784" fill="#CDD5E9" stroke="#CDD5E9"/>
<circle cx="301.128" cy="370.128" r="1.62784" fill="#CDD5E9" stroke="#CDD5E9"/>
<circle cx="173.128" cy="710.128" r="1.62784" fill="#CDD5E9" stroke="#CDD5E9"/>
<circle cx="216.128" cy="629.128" r="1.62784" fill="#CDD5E9" stroke="#CDD5E9"/>
<circle cx="329.128" cy="650.128" r="1.62784" fill="#CDD5E9" stroke="#CDD5E9"/>
<circle cx="319.128" cy="671.128" r="1.62784" fill="#CDD5E9" stroke="#CDD5E9"/>
<path d="M310.883 691C310.883 691.899 310.155 692.628 309.256 692.628C308.357 692.628 307.628 691.899 307.628 691C307.628 690.101 308.357 689.372 309.256 689.372C310.155 689.372 310.883 690.101 310.883 691ZM419.256 693.128C419.256 694.027 418.527 694.756 417.628 694.756C416.729 694.756 416 694.027 416 693.128C416 692.229 416.729 691.5 417.628 691.5C418.527 691.5 419.256 692.229 419.256 693.128ZM331.628 750.872C331.628 751.771 330.899 752.5 330 752.5C329.101 752.5 328.372 751.771 328.372 750.872C328.372 749.973 329.101 749.244 330 749.244C330.899 749.244 331.628 749.973 331.628 750.872Z" fill="#CDD5E9" stroke="#CDD5E9"/>
<circle cx="101.128" cy="594.128" r="1.62784" fill="#CDD5E9" stroke="#CDD5E9"/>
<path d="M285.416 162.106L332.609 215.409L268.582 197.734L285.416 162.106Z" stroke="#CDD5E9" stroke-width="0.5"/>
<circle cx="332.609" cy="215.409" r="0.583764" transform="rotate(146.794 332.609 215.409)" fill="#CDD5E9" stroke="#CDD5E9"/>
<circle cx="268.878" cy="198.187" r="0.583764" transform="rotate(146.794 268.878 198.187)" fill="#CDD5E9" stroke="#CDD5E9"/>
<circle cx="284.962" cy="162.403" r="0.583764" transform="rotate(146.794 284.962 162.403)" fill="#CDD5E9" stroke="#CDD5E9"/>
<path d="M330 751.884L309 692L330 650L419.5 692L330 751.884Z" stroke="#CDD5E9" stroke-width="0.5"/>
<circle cx="302.681" cy="580.681" r="1.18078" fill="#CDD5E9" stroke="#CDD5E9"/>
<circle cx="362.681" cy="664.681" r="1.18078" fill="#CDD5E9" stroke="#CDD5E9"/>
<circle cx="388.681" cy="677.681" r="1.18078" fill="#CDD5E9" stroke="#CDD5E9"/>
<path d="M329.5 650L302.5 581L249 570L216 630.5L308.5 691" stroke="#CDD5E9" stroke-width="0.5"/>
<path d="M86.8419 384.223L9.52609 452.295L-50 399.5M86.8419 384.223L182.5 452.295L224 444M86.8419 384.223L144.5 355.5L234.5 326" stroke="#CDD5E9" stroke-width="0.5"/>
<circle cx="182.681" cy="451.681" r="1.18078" transform="rotate(90 182.681 451.681)" fill="#CDD5E9" stroke="#CDD5E9"/>
<circle cx="9.68079" cy="451.681" r="1.18078" transform="rotate(90 9.68079 451.681)" fill="#CDD5E9" stroke="#CDD5E9"/>
<path d="M87.1808 385.181C86.5287 385.181 86 384.652 86 384C86 383.348 86.5287 382.819 87.1808 382.819C87.8329 382.819 88.3616 383.348 88.3616 384C88.3616 384.652 87.8329 385.181 87.1808 385.181Z" fill="#CDD5E9" stroke="#CDD5E9"/>
<circle cx="381.128" cy="2.12784" r="1.62784" fill="#CDD5E9" stroke="#CDD5E9"/>
</svg>
