<svg xmlns="http://www.w3.org/2000/svg" width="14" height="15" viewBox="0 0 14 15" fill="current">
  <path fill-rule="evenodd" clip-rule="evenodd" d="M0.25 2.375C0.25 1.75368 0.75368 1.25 1.375 1.25H12.625C13.2463 1.25 13.75 1.75368 13.75 2.375V13.625C13.75 14.2463 13.2463 14.75 12.625 14.75H1.375C0.75368 14.75 0.25 14.2463 0.25 13.625V2.375ZM12.625 2.375H1.375V13.625H12.625V2.375Z"/>
  <path fill-rule="evenodd" clip-rule="evenodd" d="M10.375 0.125C10.6857 0.125 10.9375 0.37684 10.9375 0.6875V2.9375C10.9375 3.24816 10.6857 3.5 10.375 3.5C10.0643 3.5 9.8125 3.24816 9.8125 2.9375V0.6875C9.8125 0.37684 10.0643 0.125 10.375 0.125Z"/>
  <path fill-rule="evenodd" clip-rule="evenodd" d="M3.625 0.125C3.93566 0.125 4.1875 0.37684 4.1875 0.6875V2.9375C4.1875 3.24816 3.93566 3.5 3.625 3.5C3.31434 3.5 3.0625 3.24816 3.0625 2.9375V0.6875C3.0625 0.37684 3.31434 0.125 3.625 0.125Z"/>
  <path fill-rule="evenodd" clip-rule="evenodd" d="M0.25 5.1875C0.25 4.87684 0.50184 4.625 0.8125 4.625H13.1875C13.4982 4.625 13.75 4.87684 13.75 5.1875C13.75 5.49816 13.4982 5.75 13.1875 5.75H0.8125C0.50184 5.75 0.25 5.49816 0.25 5.1875Z"/>
</svg>