<svg xmlns="http://www.w3.org/2000/svg" width="16" height="16" viewBox="0 0 16 16" fill="current">
  <path fill-rule="evenodd" clip-rule="evenodd" d="M8 1.8125C4.58274 1.8125 1.8125 4.58274 1.8125 8C1.8125 11.4173 4.58274 14.1875 8 14.1875C11.4173 14.1875 14.1875 11.4173 14.1875 8C14.1875 4.58274 11.4173 1.8125 8 1.8125ZM0.6875 8C0.6875 3.96142 3.96142 0.6875 8 0.6875C12.0386 0.6875 15.3125 3.96142 15.3125 8C15.3125 12.0386 12.0386 15.3125 8 15.3125C3.96142 15.3125 0.6875 12.0386 0.6875 8Z"/>
  <path fill-rule="evenodd" clip-rule="evenodd" d="M8 3.5C8.31066 3.5 8.5625 3.75184 8.5625 4.0625V7.4375H11.9375C12.2482 7.4375 12.5 7.68934 12.5 8C12.5 8.31066 12.2482 8.5625 11.9375 8.5625H8C7.68934 8.5625 7.4375 8.31066 7.4375 8V4.0625C7.4375 3.75184 7.68934 3.5 8 3.5Z"/>
</svg>