<svg width="18" height="18" viewBox="0 0 18 18" fill="none" xmlns="http://www.w3.org/2000/svg">
<path fill-rule="evenodd" clip-rule="evenodd" d="M14.5928 3.40717C14.8857 3.70006 14.8857 4.17494 14.5928 4.46783L4.46783 14.5928C4.17494 14.8857 3.70006 14.8857 3.40717 14.5928C3.11428 14.2999 3.11428 13.8251 3.40717 13.5322L13.5322 3.40717C13.8251 3.11428 14.2999 3.11428 14.5928 3.40717Z" fill="#613DE4"/>
<path fill-rule="evenodd" clip-rule="evenodd" d="M3.40717 3.40717C3.70006 3.11428 4.17494 3.11428 4.46783 3.40717L14.5928 13.5322C14.8857 13.8251 14.8857 14.2999 14.5928 14.5928C14.2999 14.8857 13.8251 14.8857 13.5322 14.5928L3.40717 4.46783C3.11428 4.17494 3.11428 3.70006 3.40717 3.40717Z" fill="#613DE4"/>
</svg>
