<svg width="50" height="50" viewBox="0 0 50 50" fill="none" xmlns="http://www.w3.org/2000/svg">
<path d="M25 4.6875C20.9826 4.6875 17.0554 5.87881 13.715 8.11077C10.3746 10.3427 7.7711 13.5151 6.2337 17.2267C4.69629 20.9384 4.29404 25.0225 5.0778 28.9628C5.86156 32.903 7.79614 36.5224 10.6369 39.3631C13.4776 42.2039 17.097 44.1384 21.0372 44.9222C24.9775 45.706 29.0616 45.3037 32.7733 43.7663C36.4849 42.2289 39.6573 39.6254 41.8892 36.285C44.1212 32.9446 45.3125 29.0174 45.3125 25C45.3063 19.6147 43.1642 14.4518 39.3562 10.6438C35.5482 6.83578 30.3853 4.69372 25 4.6875ZM34.6741 21.4432L23.2147 32.3807C22.9234 32.6579 22.5366 32.8125 22.1344 32.8125C21.7322 32.8125 21.3454 32.6579 21.0541 32.3807L15.3259 26.9119C15.0267 26.6253 14.8534 26.2315 14.8443 25.8172C14.8351 25.4029 14.9907 25.0019 15.277 24.7023C15.5633 24.4027 15.9568 24.2289 16.3711 24.2192C16.7854 24.2095 17.1866 24.3647 17.4866 24.6506L22.1344 29.0894L32.5134 19.1818C32.8134 18.8959 33.2146 18.7408 33.6289 18.7505C34.0432 18.7602 34.4367 18.9339 34.723 19.2335C35.0093 19.5332 35.1649 19.9342 35.1557 20.3485C35.1466 20.7628 34.9733 21.1565 34.6741 21.4432Z" fill="#6E2ADD"/>
</svg>
