<svg width="20" height="20" viewBox="0 0 20 20" fill="none" xmlns="http://www.w3.org/2000/svg">
<path fill-rule="evenodd" clip-rule="evenodd" d="M13.8696 13.8697C14.1625 13.5768 14.6373 13.5768 14.9302 13.8697L19.2802 18.2197C19.5731 18.5126 19.5731 18.9875 19.2802 19.2804C18.9873 19.5732 18.5125 19.5732 18.2196 19.2804L13.8696 14.9304C13.5767 14.6375 13.5767 14.1626 13.8696 13.8697Z" fill="#475467"/>
<path fill-rule="evenodd" clip-rule="evenodd" d="M8.75 1.5C4.74594 1.5 1.5 4.74594 1.5 8.75C1.5 12.7541 4.74594 16 8.75 16C12.7541 16 16 12.7541 16 8.75C16 4.74594 12.7541 1.5 8.75 1.5ZM0 8.75C0 3.91751 3.91751 0 8.75 0C13.5825 0 17.5 3.91751 17.5 8.75C17.5 13.5825 13.5825 17.5 8.75 17.5C3.91751 17.5 0 13.5825 0 8.75Z" fill="#475467"/>
</svg>
