<svg width="200" height="200" viewBox="0 0 200 200" fill="none" xmlns="http://www.w3.org/2000/svg">
<path opacity="0.05" d="M196.263 130.231C200.455 115.625 200.467 100.511 199.425 85.4592C198.432 70.9769 195.694 56.3088 188.595 43.5594C182.077 31.8373 172.155 22.2938 160.84 15.3745C136.404 0.421745 106.759 -3.50211 79.1621 3.07065C65.1332 6.41274 51.6858 12.3914 39.5832 20.3257C26.9717 28.5943 15.9473 39.7965 9.34475 53.5361C-2.75789 78.7132 -2.28542 110.711 6.07376 137.002C10.0111 149.367 16.1654 161.065 24.9243 170.571C34.5798 181.055 46.537 187.529 59.7058 192.319C71.0815 196.454 83.0145 199.065 95.0808 199.783C120.619 201.331 146.884 194.659 166.715 177.614C180.357 165.904 191.005 148.55 196.263 130.231Z" fill="white"/>
<path opacity="0.05" d="M182.705 125.897C186.306 113.385 186.317 100.438 185.422 87.5439C184.568 75.1379 182.216 62.5728 176.117 51.6512C170.517 41.6098 161.992 33.4345 152.271 27.5072C131.277 14.6982 105.807 11.3369 82.097 16.9673C70.044 19.8303 58.4906 24.9517 48.0926 31.7486C37.2574 38.8317 27.7857 48.4278 22.1131 60.1976C11.715 81.7651 12.121 109.175 19.3028 131.697C22.6855 142.29 27.973 152.31 35.4984 160.453C43.7939 169.434 54.067 174.98 65.381 179.084C75.1545 182.625 85.4069 184.862 95.7737 185.477C117.715 186.803 140.28 181.088 157.319 166.487C169.039 156.456 178.188 141.59 182.705 125.897Z" fill="white"/>
<path d="M165.573 124.146C168.643 113.519 168.652 102.522 167.889 91.5707C167.161 81.0334 165.156 70.3609 159.957 61.0844C155.183 52.5555 147.916 45.6116 139.629 40.5771C121.733 29.6975 100.021 26.8426 79.8088 31.6249C69.5342 34.0566 59.6854 38.4066 50.8215 44.1797C41.5849 50.1958 33.5107 58.3465 28.675 68.3435C19.8111 86.6623 20.1572 109.944 26.2794 129.073C29.163 138.07 33.6704 146.581 40.0854 153.498C47.157 161.126 55.9145 165.837 65.5592 169.322C73.8907 172.33 82.6304 174.23 91.4677 174.753C110.171 175.879 129.408 171.024 143.932 158.622C153.923 150.103 161.722 137.476 165.573 124.146Z" fill="white"/>
<path d="M174.728 120.562C177.798 109.935 177.807 98.9381 177.044 87.9865C176.316 77.4491 174.311 66.7767 169.112 57.5002C164.338 48.9713 157.071 42.0274 148.784 36.9929C130.888 26.1133 109.176 23.2583 88.9637 28.0407C78.6891 30.4724 68.8403 34.8224 59.9764 40.5954C50.7398 46.6116 42.6656 54.7623 37.8299 64.7593C28.966 83.0781 29.3121 106.359 35.4343 125.489C38.3179 134.486 42.8253 142.997 49.2403 149.914C56.3119 157.542 65.0694 162.252 74.7141 165.738C83.0456 168.746 91.7853 170.646 100.623 171.169C119.326 172.294 138.563 167.44 153.087 155.038C163.078 146.518 170.877 133.892 174.728 120.562Z" fill="#613DE4"/>
<path opacity="0.2" d="M176.652 111.65C162.91 121.149 145.943 124.851 129.392 123.858C120.567 123.325 111.84 121.429 103.52 118.404C93.8895 114.91 85.1446 110.187 78.0831 102.539C71.6772 95.604 67.1763 87.0709 64.2967 78.0502C60.5843 66.3928 58.9984 53.2004 60.3185 40.5316C69.1343 34.7978 78.907 30.4725 89.0873 28.0526C109.271 23.2487 130.951 26.1112 148.822 37.0191C157.098 42.0757 164.354 49.0376 169.121 57.5798C174.313 66.8894 176.315 77.5806 177.042 88.1454C177.591 96.0103 177.742 103.893 176.652 111.65Z" fill="#FBFCFE"/>
<path d="M176.089 120.938C178.469 112.599 179.064 103.881 178.824 95.2356C178.593 86.9506 177.883 78.5665 175.778 70.5339C173.78 62.9251 170.423 55.8211 165.539 49.6817C160.859 43.8038 154.963 38.9446 148.525 35.1673C135.213 27.3511 119.673 23.763 104.337 24.4572C88.3967 25.1874 72.8652 30.5605 59.4472 39.2602C53.311 43.2359 47.672 48.0951 43.0987 53.8648C38.481 59.6796 35.1509 66.3058 32.9664 73.4368C28.4907 88.0414 28.6861 104.043 32.1583 118.837C35.6393 133.676 42.8856 147.776 55.0781 157.071C61.0545 161.624 67.9101 164.833 74.9343 167.321C82.8821 170.143 91.194 171.928 99.5947 172.532C114.345 173.596 129.548 170.972 142.673 163.895C155.851 156.791 165.983 145.126 172.199 131.432C173.736 128.033 175.041 124.526 176.089 120.938C176.577 119.27 174.011 118.549 173.523 120.217C169.464 134.109 161.357 147.226 149.892 156.025C138.508 164.752 124.424 169.214 110.26 169.945C95.0214 170.729 79.2767 167.42 65.6278 160.47C59.1897 157.188 53.382 152.87 48.6577 147.325C43.889 141.727 40.2659 135.128 37.7351 128.204C32.7355 114.555 30.995 99.2834 33.144 84.8681C34.2185 77.683 36.2521 70.561 39.5999 64.1151C42.8945 57.7774 47.5122 52.2421 52.8492 47.5812C58.4437 42.6859 64.8819 38.7643 71.5421 35.5729C78.5397 32.2193 85.9813 29.7672 93.6006 28.3788C108.173 25.7283 123.456 27.1257 137.247 32.634C150.683 37.998 162.946 47.437 169.411 60.7885C172.821 67.8384 174.553 75.6545 175.387 83.4256C176.267 91.5483 176.577 99.8694 175.805 108.01C175.414 112.148 174.659 116.232 173.523 120.226C173.043 121.903 175.609 122.615 176.089 120.938Z" fill="white"/>
<ellipse opacity="0.2" cx="79.9296" cy="40.5018" rx="2.46479" ry="2.50896" fill="#FBFCFE"/>
<ellipse opacity="0.2" cx="172.887" cy="89.9642" rx="4.57746" ry="4.6595" fill="#FBFCFE"/>
<ellipse opacity="0.2" cx="98.9437" cy="101.434" rx="6.69014" ry="6.81004" fill="#FBFCFE"/>
<ellipse opacity="0.2" cx="103.873" cy="64.1577" rx="3.16901" ry="3.22581" fill="#FBFCFE"/>
<ellipse opacity="0.2" cx="144.718" cy="56.2724" rx="2.46479" ry="2.50896" fill="#FBFCFE"/>
<ellipse opacity="0.2" cx="143.31" cy="78.4946" rx="2.46478" ry="2.50896" fill="#FBFCFE"/>
<ellipse opacity="0.2" cx="34.8591" cy="84.2294" rx="3.87324" ry="3.94265" fill="#FBFCFE"/>
<ellipse opacity="0.2" cx="42.6056" cy="135.125" rx="3.87324" ry="3.94265" fill="#FBFCFE"/>
<ellipse opacity="0.2" cx="84.1549" cy="125.09" rx="4.57747" ry="4.6595" fill="#FBFCFE"/>
<ellipse opacity="0.2" cx="93.3098" cy="158.781" rx="1.76056" ry="1.79211" fill="#FBFCFE"/>
<ellipse opacity="0.2" cx="144.718" cy="145.161" rx="1.76056" ry="1.79211" fill="#FBFCFE"/>
</svg>
